<?xml version="1.0" encoding="UTF-8"?>
<svg id="Layer_2" data-name="Layer 2" xmlns="http://www.w3.org/2000/svg" viewBox="0 0 290.38 142">
  <defs>
    <style>
      .cls-1 {
        fill: #87cbac;
      }
    </style>
  </defs>
  <g id="Simplified">
    <g id="Typo_Turq" data-name="Typo Turq">
      <circle class="cls-1" cx="8.09" cy="71" r="7.41"/>
      <circle class="cls-1" cx="282.97" cy="71" r="7.41"/>
      <path class="cls-1" d="M40.89,126.64c-2.98-13.01.36-45.17,1.03-75.39.16-7.14.09-23.66.09-29.01,0-5,1.69-3.76,5.07-3.29,0,0,5.35,1.6,9.3.94,3.94-.66,8.54-3.19,1.78-7.7C51.4,7.69,10.56-1.99,2.21.36c-8.36,2.35,9.33,8.86,14.93,10.52,4.13,1.22,6.48.38,6.01,5.35s2.3,96.56,3.19,108.82c.67,9.2,10.41,19.11,23.26,16.34,13.24-2.86-5.71-1.69-8.71-14.75Z"/>
      <path class="cls-1" d="M96.14,15.34c1.45-2.86-2.67-13.44-10.56-7.25-9.61,7.53-30.83,29.14-30.4,36.82.43,7.68,29.98,35.1,30.08,39.26s-25.53,34.05-28.38,38.83c-3.63,6.08-.15,12.08,5.87,10.13,7.25-2.35,35.42-42.96,37.55-47.79,1.88-4.26-28.74-35.86-30.62-40.11-1.35-3.06,21.87-20.82,26.46-29.89Z"/>
      <path class="cls-1" d="M148.56,14.8s5.85-.59,5.85-3.28-6.09-3.75-6.09-3.75c0,0-25.41-2.46-33.49-1.17-8.08,1.29-9.25,108.08-8.08,118.5,1.17,10.42,7.09,8.21,13.78,8.04,9.62-.23,33.29-2.07,33.64-6.17.27-3.15-.7-3.86-5.27-4.22-5.14-.4-30.09,4.1-29.04,1.52s5.62-77.75,5.62-77.75c10.42-4.68,0-8.31,0-8.31.59-3.04.23-21.55.35-22.02.12-.47,22.72-1.41,22.72-1.41Z"/>
      <path class="cls-1" d="M206.89,127.15c.27-3.15-.7-3.86-5.27-4.22-5.14-.4-27.84,4.04-29.04,1.52-2.13-4.47,1.38-98.76.88-110.46-.46-10.74-5.92-7.22-5.92-7.22-8.08,1.29-9.25,108.08-8.08,118.5,1.17,10.42,8.09,7.69,13.88,7.54,9.62-.24,33.19-1.57,33.55-5.67Z"/>
      <path class="cls-1" d="M257.67,9.48c-7.38-4.76-39.33-6.72-40.83,15.93-1.49,22.65,3.96,84.28-1.21,100.62-3.62,11.45-18.38,11.81-13.85,14.23,7.88,4.22,20.42.45,24.55-8.26,6.16-12.99,4.01-37.78,5.43-83.38l16.77.59c-.06,36.26-.69,88.75,11.5,83.49,5.13-2.21,6.33-24.52,6.6-56.29.17-20.07.31-60.97-8.96-66.94ZM232.11,38.92c.12-3.01.26-6.1.42-9.28.79-15.96,14.92-18.95,15.68-4.48.2,3.84.28,8.74.31,14.32l-16.41-.56Z"/>
    </g>
  </g>
</svg>