<?xml version="1.0" encoding="UTF-8"?>
<svg id="Layer_2" data-name="Layer 2" xmlns="http://www.w3.org/2000/svg" viewBox="0 0 2201.67 42.32">
  <defs>
    <style>
      .cls-1 {
        fill: #87cbac;
      }

      .cls-2 {
        fill: #ea6d28;
      }

      .cls-3 {
        fill: #ffdda1;
      }

      .cls-4 {
        fill: #226869;
      }
    </style>
  </defs>
  <g id="Patterns">
    <g id="Pattern_2" data-name="Pattern 2">
      <g id="Pattern_2-2" data-name="Pattern 2">
        <g>
          <path class="cls-2" d="M2189.62,9.36c6.51,0,11.79,5.28,11.79,11.8s-5.28,11.8-11.79,11.8-11.8-5.28-11.8-11.8,5.28-11.8,11.8-11.8Z"/>
          <path class="cls-3" d="M2133.63.25c11.54,0,20.9,9.36,20.9,20.91s-9.36,20.91-20.9,20.91-20.91-9.36-20.91-20.91,9.36-20.91,20.91-20.91Z"/>
          <path class="cls-4" d="M2077.63,9.36c6.52,0,11.8,5.28,11.8,11.8s-5.28,11.8-11.8,11.8-11.79-5.28-11.79-11.8,5.28-11.8,11.79-11.8Z"/>
          <circle class="cls-1" cx="2021.64" cy="21.16" r="20.91"/>
          <circle class="cls-3" cx="1965.65" cy="21.16" r="11.8"/>
          <path class="cls-2" d="M1909.66.25c11.54,0,20.91,9.36,20.91,20.91s-9.37,20.91-20.91,20.91-20.91-9.36-20.91-20.91S1898.11.25,1909.66.25Z"/>
          <path class="cls-1" d="M1853.66,9.36c6.52,0,11.8,5.28,11.8,11.8s-5.28,11.8-11.8,11.8-11.79-5.28-11.79-11.8,5.28-11.8,11.79-11.8Z"/>
          <circle class="cls-4" cx="1797.67" cy="21.16" r="20.91"/>
          <path class="cls-2" d="M1749.31,9.36c6.51,0,11.79,5.28,11.79,11.8s-5.28,11.8-11.79,11.8-11.8-5.28-11.8-11.8,5.28-11.8,11.8-11.8Z"/>
          <path class="cls-3" d="M1693.32.25c11.54,0,20.9,9.36,20.9,20.91s-9.36,20.91-20.9,20.91-20.91-9.36-20.91-20.91S1681.77.25,1693.32.25Z"/>
          <path class="cls-4" d="M1637.32,9.36c6.52,0,11.8,5.28,11.8,11.8s-5.28,11.8-11.8,11.8-11.79-5.28-11.79-11.8,5.28-11.8,11.79-11.8Z"/>
          <circle class="cls-1" cx="1581.33" cy="21.16" r="20.91"/>
          <circle class="cls-3" cx="1525.34" cy="21.16" r="11.8"/>
          <path class="cls-2" d="M1469.35.25c11.54,0,20.9,9.36,20.9,20.91s-9.36,20.91-20.9,20.91-20.91-9.36-20.91-20.91S1457.8.25,1469.35.25Z"/>
          <path class="cls-1" d="M1413.35,9.36c6.52,0,11.8,5.28,11.8,11.8s-5.28,11.8-11.8,11.8-11.79-5.28-11.79-11.8,5.28-11.8,11.79-11.8Z"/>
          <circle class="cls-4" cx="1357.36" cy="21.16" r="20.91"/>
          <path class="cls-2" d="M1303.88,9.36c6.52,0,11.8,5.28,11.8,11.8s-5.28,11.8-11.8,11.8-11.79-5.28-11.79-11.8,5.28-11.8,11.79-11.8Z"/>
          <circle class="cls-3" cx="1247.89" cy="21.16" r="20.91"/>
          <circle class="cls-4" cx="1191.9" cy="21.16" r="11.8"/>
          <circle class="cls-1" cx="1135.91" cy="21.16" r="20.91"/>
          <path class="cls-3" d="M1079.92,9.36c6.51,0,11.79,5.28,11.79,11.8s-5.28,11.8-11.79,11.8-11.8-5.28-11.8-11.8,5.28-11.8,11.8-11.8Z"/>
          <path class="cls-2" d="M1023.92.25c11.55,0,20.91,9.36,20.91,20.91s-9.36,20.91-20.91,20.91-20.91-9.36-20.91-20.91S1012.38.25,1023.92.25Z"/>
          <circle class="cls-1" cx="967.93" cy="21.16" r="11.8"/>
          <circle class="cls-4" cx="911.94" cy="21.16" r="20.91"/>
          <path class="cls-2" d="M858.53,9.36c6.51,0,11.79,5.28,11.79,11.8s-5.28,11.8-11.79,11.8-11.8-5.28-11.8-11.8,5.28-11.8,11.8-11.8Z"/>
          <path class="cls-3" d="M802.53.25c11.55,0,20.91,9.36,20.91,20.91s-9.36,20.91-20.91,20.91-20.9-9.36-20.9-20.91S790.99.25,802.53.25Z"/>
          <path class="cls-4" d="M746.54,9.36c6.52,0,11.8,5.28,11.8,11.8s-5.28,11.8-11.8,11.8-11.79-5.28-11.79-11.8,5.28-11.8,11.79-11.8Z"/>
          <circle class="cls-1" cx="690.55" cy="21.16" r="20.91"/>
          <path class="cls-3" d="M634.56,9.36c6.51,0,11.79,5.28,11.79,11.8s-5.28,11.8-11.79,11.8-11.8-5.28-11.8-11.8,5.28-11.8,11.8-11.8Z"/>
          <path class="cls-2" d="M578.57.25c11.54,0,20.9,9.36,20.9,20.91s-9.36,20.91-20.9,20.91-20.91-9.36-20.91-20.91S567.02.25,578.57.25Z"/>
          <path class="cls-1" d="M522.57,9.36c6.52,0,11.8,5.28,11.8,11.8s-5.28,11.8-11.8,11.8-11.79-5.28-11.79-11.8,5.28-11.8,11.79-11.8Z"/>
          <circle class="cls-4" cx="466.58" cy="21.16" r="20.91"/>
          <path class="cls-2" d="M413.1,9.36c6.52,0,11.8,5.28,11.8,11.8s-5.28,11.8-11.8,11.8-11.79-5.28-11.79-11.8,5.28-11.8,11.79-11.8Z"/>
          <circle class="cls-3" cx="357.11" cy="21.16" r="20.91"/>
          <circle class="cls-4" cx="301.12" cy="21.16" r="11.8"/>
          <path class="cls-1" d="M245.13.25c11.54,0,20.91,9.36,20.91,20.91s-9.37,20.91-20.91,20.91-20.91-9.36-20.91-20.91S233.58.25,245.13.25Z"/>
          <path class="cls-3" d="M189.13,9.36c6.52,0,11.8,5.28,11.8,11.8s-5.28,11.8-11.8,11.8-11.79-5.28-11.79-11.8,5.28-11.8,11.79-11.8Z"/>
          <circle class="cls-2" cx="133.14" cy="21.16" r="20.91"/>
          <circle class="cls-1" cx="77.15" cy="21.16" r="11.8"/>
          <circle class="cls-4" cx="21.16" cy="21.16" r="20.91"/>
        </g>
      </g>
    </g>
  </g>
</svg>