<?xml version="1.0" encoding="UTF-8"?>
<svg id="Layer_2" data-name="Layer 2" xmlns="http://www.w3.org/2000/svg" viewBox="0 0 1992.44 41.82">
  <defs>
    <style>
      .cls-1 {
        fill: #592c14;
      }
    </style>
  </defs>
  <g id="Patterns">
    <g>
      <circle class="cls-1" cx="972.78" cy="20.91" r="11.8"/>
      <circle class="cls-1" cx="1028.77" cy="20.91" r="20.91"/>
      <circle class="cls-1" cx="1084.76" cy="20.91" r="11.8"/>
      <circle class="cls-1" cx="1140.75" cy="20.91" r="20.91"/>
      <circle class="cls-1" cx="1196.75" cy="20.91" r="11.8"/>
      <circle class="cls-1" cx="1252.74" cy="20.91" r="20.91"/>
      <circle class="cls-1" cx="1308.73" cy="20.91" r="11.8"/>
      <circle class="cls-1" cx="1364.72" cy="20.91" r="20.91"/>
      <circle class="cls-1" cx="748.81" cy="20.91" r="11.8"/>
      <circle class="cls-1" cx="804.8" cy="20.91" r="20.91"/>
      <circle class="cls-1" cx="860.79" cy="20.91" r="11.8"/>
      <circle class="cls-1" cx="916.79" cy="20.91" r="20.91"/>
      <circle class="cls-1" cx="524.84" cy="20.91" r="11.8"/>
      <circle class="cls-1" cx="580.83" cy="20.91" r="20.91"/>
      <circle class="cls-1" cx="636.82" cy="20.91" r="11.8"/>
      <circle class="cls-1" cx="692.82" cy="20.91" r="20.91"/>
      <circle class="cls-1" cx="1644.68" cy="20.91" r="11.8"/>
      <circle class="cls-1" cx="1700.68" cy="20.91" r="20.91"/>
      <circle class="cls-1" cx="1420.72" cy="20.91" r="11.8"/>
      <circle class="cls-1" cx="1476.71" cy="20.91" r="20.91"/>
      <circle class="cls-1" cx="1532.7" cy="20.91" r="11.8"/>
      <circle class="cls-1" cx="1588.69" cy="20.91" r="20.91"/>
      <circle class="cls-1" cx="412.85" cy="20.91" r="11.8"/>
      <circle class="cls-1" cx="468.85" cy="20.91" r="20.91"/>
      <circle class="cls-1" cx="188.89" cy="20.91" r="11.8"/>
      <circle class="cls-1" cx="244.88" cy="20.91" r="20.91"/>
      <circle class="cls-1" cx="300.87" cy="20.91" r="11.8"/>
      <circle class="cls-1" cx="356.86" cy="20.91" r="20.91"/>
      <circle class="cls-1" cx="76.9" cy="20.91" r="11.8"/>
      <circle class="cls-1" cx="132.89" cy="20.91" r="20.91"/>
      <circle class="cls-1" cx="1756.67" cy="20.91" r="11.8"/>
      <circle class="cls-1" cx="1812.66" cy="20.91" r="20.91"/>
      <circle class="cls-1" cx="20.91" cy="20.91" r="20.91"/>
      <circle class="cls-1" cx="1868.65" cy="20.91" r="11.8"/>
      <circle class="cls-1" cx="1924.65" cy="20.91" r="20.91"/>
      <circle class="cls-1" cx="1980.64" cy="20.91" r="11.8"/>
    </g>
  </g>
</svg>