<?xml version="1.0" encoding="UTF-8"?>
<svg id="Layer_2" data-name="Layer 2" xmlns="http://www.w3.org/2000/svg" viewBox="0 0 1993.44 42.82">
  <defs>
    <style>
      .cls-1 {
        stroke: #000;
        stroke-miterlimit: 10;
      }
    </style>
  </defs>
  <g id="Patterns">
    <g>
      <circle class="cls-1" cx="973.28" cy="21.41" r="11.8"/>
      <circle class="cls-1" cx="1029.27" cy="21.41" r="20.91"/>
      <circle class="cls-1" cx="1085.26" cy="21.41" r="11.8"/>
      <circle class="cls-1" cx="1141.25" cy="21.41" r="20.91"/>
      <circle class="cls-1" cx="1197.25" cy="21.41" r="11.8"/>
      <circle class="cls-1" cx="1253.24" cy="21.41" r="20.91"/>
      <circle class="cls-1" cx="1309.23" cy="21.41" r="11.8"/>
      <circle class="cls-1" cx="1365.22" cy="21.41" r="20.91"/>
      <circle class="cls-1" cx="749.31" cy="21.41" r="11.8"/>
      <circle class="cls-1" cx="805.3" cy="21.41" r="20.91"/>
      <circle class="cls-1" cx="861.29" cy="21.41" r="11.8"/>
      <circle class="cls-1" cx="917.29" cy="21.41" r="20.91"/>
      <circle class="cls-1" cx="525.34" cy="21.41" r="11.8"/>
      <circle class="cls-1" cx="581.33" cy="21.41" r="20.91"/>
      <circle class="cls-1" cx="637.32" cy="21.41" r="11.8"/>
      <circle class="cls-1" cx="693.32" cy="21.41" r="20.91"/>
      <circle class="cls-1" cx="1645.18" cy="21.41" r="11.8"/>
      <circle class="cls-1" cx="1701.18" cy="21.41" r="20.91"/>
      <circle class="cls-1" cx="1421.22" cy="21.41" r="11.8"/>
      <circle class="cls-1" cx="1477.21" cy="21.41" r="20.91"/>
      <circle class="cls-1" cx="1533.2" cy="21.41" r="11.8"/>
      <circle class="cls-1" cx="1589.19" cy="21.41" r="20.91"/>
      <circle class="cls-1" cx="413.35" cy="21.41" r="11.8"/>
      <circle class="cls-1" cx="469.35" cy="21.41" r="20.91"/>
      <circle class="cls-1" cx="189.39" cy="21.41" r="11.8"/>
      <circle class="cls-1" cx="245.38" cy="21.41" r="20.91"/>
      <circle class="cls-1" cx="301.37" cy="21.41" r="11.8"/>
      <circle class="cls-1" cx="357.36" cy="21.41" r="20.91"/>
      <circle class="cls-1" cx="77.4" cy="21.41" r="11.8"/>
      <circle class="cls-1" cx="133.39" cy="21.41" r="20.91"/>
      <circle class="cls-1" cx="1757.17" cy="21.41" r="11.8"/>
      <circle class="cls-1" cx="1813.16" cy="21.41" r="20.91"/>
      <circle class="cls-1" cx="21.41" cy="21.41" r="20.91"/>
      <circle class="cls-1" cx="1869.15" cy="21.41" r="11.8"/>
      <circle class="cls-1" cx="1925.15" cy="21.41" r="20.91"/>
      <circle class="cls-1" cx="1981.14" cy="21.41" r="11.8"/>
    </g>
  </g>
</svg>