<?xml version="1.0" encoding="UTF-8"?>
<svg id="Layer_2" data-name="Layer 2" xmlns="http://www.w3.org/2000/svg" viewBox="0 0 290.57 191.43">
  <defs>
    <style>
      .cls-1 {
        fill: #592c14;
      }
    </style>
  </defs>
  <g id="Simplified">
    <g id="Emblem_Brown" data-name="Emblem Brown">
      <circle class="cls-1" cx="126.29" cy="183.4" r="4.53"/>
      <circle class="cls-1" cx="145.29" cy="183.4" r="8.03"/>
      <circle class="cls-1" cx="164.28" cy="183.4" r="4.53"/>
      <circle class="cls-1" cx="126.29" cy="8.03" r="4.53"/>
      <circle class="cls-1" cx="145.29" cy="8.03" r="8.03"/>
      <circle class="cls-1" cx="164.28" cy="8.03" r="4.53"/>
      <path class="cls-1" d="M51.3,40.2s5.83,1.74,10.13,1.02,9.31-3.48,1.94-8.39c-7.37-4.91-51.87-15.45-60.97-12.89-9.11,2.56,10.17,9.66,16.27,11.46,4.5,1.33,7.06.41,6.55,5.83-.51,5.42,2.51,105.22,3.48,118.57.73,10.03,11.35,20.83,25.34,17.81,14.43-3.11-6.22-1.84-9.49-16.07-3.25-14.18.4-49.21,1.13-82.15.17-7.78.1-25.78.1-31.61,0-5.45,1.84-4.09,5.52-3.58Z"/>
      <path class="cls-1" d="M104.76,36.27c1.58-3.11-2.91-14.65-11.51-7.9-10.47,8.21-33.59,31.76-33.13,40.12.47,8.37,32.66,38.24,32.78,42.78s-27.81,37.11-30.92,42.31c-3.95,6.63-.17,13.16,6.39,11.04,7.9-2.56,38.59-46.81,40.92-52.08,2.05-4.64-31.32-39.07-33.36-43.71-1.47-3.34,23.83-22.69,28.83-32.57Z"/>
      <path class="cls-1" d="M167.99,157.9c.29-3.43-.77-4.21-5.74-4.59-5.6-.43-32.79,4.47-31.64,1.66,1.15-2.81,6.12-84.72,6.12-84.72,11.35-5.1,0-9.06,0-9.06.64-3.32.26-23.48.38-23.99.13-.51,24.75-1.53,24.75-1.53,0,0,6.38-.64,6.38-3.57s-6.63-4.08-6.63-4.08c0,0-27.69-2.68-36.49-1.28-8.8,1.4-10.08,117.76-8.8,129.12,1.28,11.35,7.73,8.94,15.02,8.76,10.49-.25,36.27-2.26,36.65-6.72Z"/>
      <path class="cls-1" d="M225.43,158.1c.29-3.43-.77-4.21-5.74-4.59-5.6-.43-30.34,4.4-31.64,1.66-2.32-4.87,1.5-107.61.96-120.36-.5-11.7-6.45-7.87-6.45-7.87-8.8,1.4-10.08,117.76-8.8,129.12,1.28,11.35,8.82,8.38,15.12,8.22,10.48-.27,36.17-1.71,36.55-6.17Z"/>
      <path class="cls-1" d="M280.76,29.88c-8.04-5.18-42.86-7.32-44.49,17.36-1.63,24.68,4.32,91.83-1.32,109.63-3.95,12.47-20.02,12.87-15.09,15.51,8.59,4.6,22.25.49,26.75-9,6.72-14.15,4.37-41.16,5.91-90.85l18.27.64c-.07,39.51-.75,96.71,12.54,90.97,5.59-2.41,6.9-26.72,7.19-61.33.18-21.87.34-66.43-9.77-72.94ZM252.91,61.96c.13-3.28.28-6.64.45-10.11.87-17.39,16.26-20.65,17.09-4.88.22,4.19.31,9.52.34,15.6l-17.88-.61Z"/>
    </g>
  </g>
</svg>