<?xml version="1.0" encoding="UTF-8"?>
<svg id="Layer_2" data-name="Layer 2" xmlns="http://www.w3.org/2000/svg" viewBox="0 0 815.79 621.23">
  <defs>
    <style>
      .cls-1 {
        stroke: #000;
        stroke-miterlimit: 10;
      }
    </style>
  </defs>
  <g id="Simplified">
    <g>
      <circle class="cls-1" cx="23.95" cy="441.15" r="11.8"/>
      <circle class="cls-1" cx="803.49" cy="441.15" r="11.8"/>
      <polygon class="cls-1" points="45.5 487.53 77.53 487.53 77.53 617.12 92.18 617.12 92.18 487.53 124.21 487.53 124.21 473.47 45.5 473.47 45.5 487.53"/>
      <path class="cls-1" d="M244.25,545.77c6.84-3.03,12.09-7.51,15.77-13.44,3.68-5.93,5.52-12.81,5.52-20.63,0-9.39-2.67-17.29-8.01-23.71-5.34-6.42-12.27-10.61-20.8-12.56-5.66-1.3-16.47-1.96-32.42-1.96h-28.61v143.65h14.36v-66.7h8.12l51.66,66.7h17.76l-51.66-66.7c12.04-.06,21.48-1.61,28.32-4.64ZM190.05,536.36v-48.83h25.33c9.85,0,16.89.85,21.13,2.54,4.24,1.69,7.66,4.51,10.27,8.45,2.61,3.94,3.91,8.32,3.91,13.13s-1.29,9.43-3.86,13.43c-2.58,4-6.16,6.92-10.76,8.74-4.6,1.82-11.69,2.73-21.27,2.73l-24.75-.2Z"/>
      <path class="cls-1" d="M381.48,473.47l-67.87,143.65h16.02l22.38-47.27h61.88l22.59,47.27h15.51l-66.99-143.65h-3.52ZM358.57,555.99l24.62-52,24.5,52h-49.11Z"/>
      <rect class="cls-1" x="502.2" y="473.47" width="14.36" height="143.65"/>
      <polygon class="cls-1" points="593.82 473.47 579.47 473.47 579.47 617.12 649.09 617.12 649.09 603.25 593.82 603.25 593.82 473.47"/>
      <path class="cls-1" d="M738.57,535.97c-10.48-7.75-16.67-12.53-18.55-14.36-3.45-3.45-5.83-6.64-7.13-9.57-1.3-2.93-1.95-5.96-1.95-9.08,0-5.14,1.84-9.47,5.52-12.99,3.68-3.52,8.41-5.27,14.21-5.27,4.49,0,8.64,1.14,12.45,3.42,3.81,2.28,8.41,7,13.82,14.16l11.72-8.89c-6.58-8.98-12.81-15.15-18.7-18.51-5.89-3.35-12.22-5.03-18.99-5.03-6.38,0-12.29,1.48-17.72,4.44-5.44,2.96-9.65,7.02-12.65,12.16-3,5.14-4.49,10.84-4.49,17.09,0,7.88,2.54,15.2,7.62,21.97,2.93,4.04,10.38,10.58,22.36,19.63,11.91,8.98,20.12,16.67,24.61,23.05,3.25,4.62,4.88,9.34,4.88,14.16,0,4.23-1.11,8.24-3.32,12.01-2.21,3.78-5.44,6.79-9.67,9.03-4.23,2.25-8.76,3.37-13.57,3.37-11.26,0-21.19-7.91-29.79-23.73l-12.21,7.32c5.99,10.94,12.53,18.73,19.63,23.39,7.1,4.65,15.01,6.98,23.73,6.98,11.33,0,20.95-3.84,28.86-11.52,7.91-7.68,11.87-16.73,11.87-27.15,0-7.23-2.31-14.42-6.93-21.58-4.62-7.16-13.15-15.33-25.59-24.51Z"/>
      <path class="cls-1" d="M134.13,95.68s15.19,4.53,26.38,2.66c11.19-1.87,24.25-9.06,5.06-21.85C146.38,63.7,30.47,36.26,6.76,42.92c-23.72,6.66,26.48,25.15,42.37,29.84,11.72,3.46,18.39,1.07,17.05,15.19-1.33,14.12,6.54,274.05,9.06,308.83,1.89,26.12,29.56,54.25,66.01,46.39,37.58-8.11-16.21-4.78-24.71-41.86-8.46-36.92,1.03-128.18,2.93-213.97.45-20.25.27-67.15.27-82.34,0-14.19,4.8-10.66,14.39-9.33Z"/>
      <path class="cls-1" d="M273.36,85.43c4.1-8.11-7.57-38.15-29.97-20.59-27.28,21.38-87.5,82.71-86.29,104.51,1.21,21.8,85.08,99.61,85.38,111.42.3,11.81-72.45,96.65-80.54,110.21-10.29,17.26-.43,34.29,16.65,28.76,20.59-6.66,100.52-121.93,106.57-135.64,5.34-12.09-81.57-101.77-86.89-113.84-3.84-8.69,62.07-59.09,75.09-84.83Z"/>
      <path class="cls-1" d="M342.59,419.76c27.31-.66,94.47-5.88,95.47-17.51.77-8.95-1.99-10.97-14.95-11.96-14.58-1.12-85.4,11.63-82.41,4.32s15.95-220.65,15.95-220.65c29.58-13.29,0-23.59,0-23.59,1.66-8.64.66-61.16,1-62.49.33-1.33,64.47-3.99,64.47-3.99,0,0,16.62-1.66,16.62-9.3s-17.28-10.63-17.28-10.63c0,0-72.11-6.98-95.04-3.32-22.93,3.66-26.25,306.73-22.93,336.31,3.32,29.58,20.13,23.29,39.12,22.83Z"/>
      <path class="cls-1" d="M587.65,402.75c.77-8.95-1.99-10.97-14.95-11.96-14.58-1.12-79.02,11.45-82.41,4.32-6.03-12.69,3.91-280.28,2.5-313.48-1.3-30.48-16.79-20.5-16.79-20.5-22.93,3.66-26.25,306.73-22.93,336.31,3.32,29.58,22.96,21.82,39.38,21.4,27.31-.69,94.2-4.45,95.2-16.08Z"/>
      <path class="cls-1" d="M738.48,418.53c14.56-6.29,17.97-69.59,18.72-159.75.47-56.96.88-173.03-25.43-189.99-20.94-13.5-111.63-19.08-115.87,45.22-4.24,64.29,11.25,239.18-3.43,285.56-10.28,32.49-52.15,33.51-39.3,40.4,22.36,11.98,57.95,1.28,69.68-23.44,17.49-36.86,11.39-107.22,15.4-236.62l47.59,1.68c-.17,102.9-1.95,251.88,32.65,236.95ZM659.23,152.35c.34-8.54.73-17.31,1.18-26.32,2.25-45.3,42.35-53.78,44.51-12.72.57,10.91.8,24.8.88,40.63l-46.58-1.59Z"/>
      <circle class="cls-1" cx="333.31" cy="21.41" r="11.8"/>
      <circle class="cls-1" cx="382.78" cy="21.41" r="20.91"/>
      <circle class="cls-1" cx="432.26" cy="21.41" r="11.8"/>
    </g>
  </g>
</svg>