<?xml version="1.0" encoding="UTF-8"?>
<svg id="Layer_2" data-name="Layer 2" xmlns="http://www.w3.org/2000/svg" viewBox="0 0 440.36 234.48">
  <defs>
    <style>
      .cls-1 {
        fill: #592c14;
      }
    </style>
  </defs>
  <g id="Simplified">
    <g id="Mark_Logo_Brown" data-name="Mark Logo Brown">
      <circle class="cls-1" cx="230.02" cy="70.1" r="9.91" transform="translate(147.31 295.89) rotate(-86.83)"/>
      <path class="cls-1" d="M67.52,209.13c-4.92-21.48.6-74.58,1.71-124.5.26-11.78.16-39.07.16-47.91,0-8.25,2.79-6.2,8.37-5.43,0,0,8.84,2.64,15.35,1.55,6.51-1.09,14.11-5.27,2.95-12.71C84.88,12.69,17.44-3.28,3.64.6c-13.8,3.88,15.41,14.63,24.65,17.36,6.82,2.02,10.7.62,9.92,8.84-.78,8.22,3.8,159.46,5.27,179.69,1.1,15.2,17.2,31.56,38.41,26.99,21.87-4.72-9.43-2.78-14.38-24.35Z"/>
      <path class="cls-1" d="M158.76,25.33c2.39-4.72-4.4-22.2-17.44-11.98-15.87,12.44-50.91,48.12-50.21,60.81.7,12.68,49.5,57.96,49.68,64.83.18,6.87-42.15,56.23-46.86,64.12-5.99,10.04-.25,19.95,9.69,16.74,11.98-3.88,58.49-70.95,62.01-78.92,3.11-7.04-47.46-59.21-50.56-66.24-2.23-5.06,36.11-34.38,43.69-49.36Z"/>
      <path class="cls-1" d="M254.98,19.02c0-4.45-10.05-6.19-10.05-6.19,0,0-41.96-4.06-55.3-1.93-13.34,2.13-15.27,178.47-13.34,195.68s11.71,13.55,22.76,13.28c15.89-.39,54.97-3.42,55.55-10.19.45-5.21-1.16-6.38-8.7-6.96-8.48-.65-49.69,6.77-47.95,2.51,1.74-4.25,9.28-128.39,9.28-128.39,17.21-7.73,0-13.73,0-13.73.97-5.03.39-35.58.58-36.36.19-.77,37.51-2.32,37.51-2.32,0,0,9.67-.97,9.67-5.41Z"/>
      <path class="cls-1" d="M341.63,209.96c.45-5.21-1.16-6.38-8.7-6.96-8.48-.65-45.98,6.66-47.95,2.51-3.51-7.38,2.28-163.08,1.45-182.4-.75-17.74-9.77-11.93-9.77-11.93-13.34,2.13-15.27,178.47-13.34,195.68,1.93,17.21,13.36,12.69,22.92,12.45,15.89-.4,54.81-2.59,55.39-9.36Z"/>
      <path class="cls-1" d="M425.49,15.65c-12.18-7.85-64.95-11.1-67.42,26.31-2.47,37.41,6.54,139.17-2,166.15-5.98,18.9-30.34,19.5-22.87,23.5,13.01,6.97,33.72.74,40.54-13.64,10.18-21.45,6.63-62.38,8.96-137.68l27.69.98c-.1,59.87-1.13,146.56,19,137.87,8.47-3.66,10.46-40.49,10.89-92.95.28-33.14.51-100.68-14.8-110.55ZM383.28,64.27c.2-4.97.43-10.07.69-15.32,1.31-26.36,24.64-31.29,25.9-7.4.33,6.34.47,14.43.51,23.64l-27.1-.92Z"/>
    </g>
  </g>
</svg>