<?xml version="1.0" encoding="UTF-8"?>
<svg id="Layer_2" data-name="Layer 2" xmlns="http://www.w3.org/2000/svg" viewBox="0 0 464.79 388.15">
  <defs>
    <style>
      .cls-1 {
        fill: #ea6d28;
      }
    </style>
  </defs>
  <g id="With_Slogan" data-name="With Slogan">
    <g id="Orange">
      <circle class="cls-1" cx="234.2" cy="67.73" r="12.01"/>
      <circle class="cls-1" cx="10.39" cy="269.92" r="6.77"/>
      <circle class="cls-1" cx="458.01" cy="269.92" r="6.77"/>
      <g>
        <path class="cls-1" d="M23.64,311.66v-8.08h45.2v8.08h-18.39v74.41h-8.41v-74.41h-18.39Z"/>
        <path class="cls-1" d="M98.41,303.59h16.43c9.16,0,15.36.38,18.62,1.12,4.9,1.12,8.88,3.53,11.94,7.21,3.06,3.69,4.6,8.23,4.6,13.62,0,4.49-1.06,8.44-3.17,11.85-2.11,3.41-5.13,5.98-9.06,7.72-3.93,1.74-9.35,2.63-16.26,2.67l29.66,38.3h-10.2l-29.67-38.3h-4.66v38.3h-8.24v-82.49ZM106.65,311.66v28.04l14.21.11c5.5,0,9.58-.52,12.22-1.57,2.64-1.05,4.7-2.72,6.18-5.02,1.48-2.3,2.22-4.87,2.22-7.71s-.75-5.28-2.25-7.54c-1.5-2.26-3.46-3.88-5.9-4.85-2.43-.97-6.48-1.46-12.13-1.46h-14.55Z"/>
        <path class="cls-1" d="M218.59,303.59l38.47,82.49h-8.9l-12.97-27.14h-35.54l-12.85,27.14h-9.2l38.97-82.49h2.02ZM217.55,321.11l-14.13,29.86h28.2l-14.07-29.86Z"/>
        <path class="cls-1" d="M285.89,303.59h8.24v82.49h-8.24v-82.49Z"/>
        <path class="cls-1" d="M330.26,303.59h8.24v74.53h31.74v7.96h-39.98v-82.49Z"/>
        <path class="cls-1" d="M392.01,370.71l7.01-4.21c4.93,9.08,10.64,13.63,17.1,13.63,2.77,0,5.36-.64,7.79-1.93,2.43-1.29,4.28-3.02,5.55-5.19,1.27-2.17,1.91-4.47,1.91-6.9,0-2.77-.93-5.48-2.8-8.13-2.58-3.66-7.29-8.08-14.13-13.23-6.88-5.2-11.16-8.95-12.84-11.27-2.92-3.89-4.37-8.09-4.37-12.62,0-3.59.86-6.86,2.58-9.81,1.72-2.95,4.14-5.28,7.26-6.98,3.12-1.7,6.51-2.55,10.18-2.55,3.89,0,7.52.96,10.91,2.89,3.38,1.93,6.96,5.47,10.74,10.63l-6.73,5.1c-3.1-4.11-5.75-6.82-7.93-8.13-2.19-1.31-4.57-1.96-7.15-1.96-3.33,0-6.05,1.01-8.16,3.03-2.11,2.02-3.17,4.51-3.17,7.46,0,1.79.37,3.53,1.12,5.22.75,1.68,2.11,3.51,4.09,5.5,1.08,1.05,4.64,3.79,10.65,8.24,7.14,5.27,12.04,9.96,14.69,14.08,2.65,4.11,3.98,8.24,3.98,12.39,0,5.98-2.27,11.18-6.81,15.59-4.54,4.41-10.07,6.62-16.57,6.62-5.01,0-9.55-1.34-13.63-4.01-4.08-2.67-7.83-7.15-11.27-13.43Z"/>
      </g>
      <g>
        <path class="cls-1" d="M29.41,281.17c1.15-1.51,2.17-2.95,3.06-4.34.51-.81,1.87-3.03,4.07-6.66l2.53-4.13c1.86-3.05,3.1-5,3.72-5.85,1.01-1.45,2.01-2.17,3-2.17.71,0,1.07.28,1.07.83,0,.38-.14.85-.42,1.43-.2.4-.75,1.77-1.66,4.13-.91,2.4-1.62,5.07-2.11,8.02-.36,2.1-.53,3.89-.53,5.38,0,.44.02.92.07,1.44.05.53.12,1.1.22,1.74.79-.99,1.66-2.42,2.62-4.28.91-1.86,2.32-4.82,4.22-8.89,1.8-3.88,3.91-7.92,6.33-12.1,1.98-3.45,4.35-6.93,7.1-10.46,1.29-1.66,2.32-2.5,3.09-2.5.34,0,.64.17.92.51.2.24.3.51.3.8,0,.4-.61,1.38-1.84,2.94-2.42,3.07-4.73,6.47-6.92,10.19-2.52,4.32-5.67,10.46-9.45,18.43-1.68,3.57-2.97,6.1-3.86,7.61-.93,1.55-2,2.32-3.21,2.32-1.03,0-1.8-.45-2.32-1.35-.52-.9-.77-2.24-.77-4.03,0-2.87.48-6.43,1.43-10.67-.93,1.17-2.02,2.82-3.27,4.96-.93,1.59-1.83,3.11-2.7,4.58-1.27,2.12-2.11,3.55-2.53,4.28-.63,1.13-1.29,2.02-1.96,2.67-.5.48-1.08.71-1.75.71-.81,0-1.4-.35-1.75-1.04-.26-.48-.39-1.06-.39-1.75,0-4.72,2.48-13.17,7.43-25.35,2.42-5.96,3.82-9.62,4.22-10.97.36-1.31.71-2.14,1.07-2.5.48-.52,1.03-.77,1.66-.77.87,0,1.31.42,1.31,1.25,0,1.01-.38,2.55-1.13,4.61-.85,2.34-2.22,5.65-4.1,9.93-1.29,2.95-2.2,5.16-2.73,6.63-2.42,7.29-3.75,12.1-4.01,14.41Z"/>
        <path class="cls-1" d="M70.04,270.15c1.47-1.53,2.93-2.8,4.4-3.83,1.88-1.31,3.23-1.96,4.04-1.96.34,0,.66.14.98.42.36.32.53.68.53,1.1,0,.53-.43,1.37-1.28,2.5-1.64,2.18-2.89,4.16-3.74,5.94-.75,1.55-1.13,2.6-1.13,3.15s.26.8.77.8c1.07,0,2.87-1.9,5.41-5.71.51-.77.98-1.16,1.4-1.16s.62.24.62.71c0,.77-.75,2.25-2.26,4.43-1.31,1.9-2.67,3.36-4.1,4.37-1.01.69-1.92,1.04-2.73,1.04-.85,0-1.47-.37-1.84-1.1-.24-.46-.36-.96-.36-1.52,0-1.76.62-3.77,1.87-6.03.3-.53,1.19-2.06,2.67-4.58-4.04,2.04-7.46,6.45-10.25,13.23-.26.77-.65,1.16-1.19,1.16-.38,0-.68-.13-.92-.39-.24-.28-.36-.61-.36-1.01,0-.65.63-2.51,1.9-5.56,2.36-5.67,4.56-10.46,6.6-14.38,2.04-3.96,4.31-8.07,6.81-12.33.59-1.03,1.06-1.72,1.4-2.08.34-.36.69-.53,1.07-.53.36,0,.66.19.92.56.2.28.3.59.3.95,0,.55-.32,1.3-.95,2.23-2.14,3.31-4.27,6.94-6.39,10.91-2.28,4.24-3.68,7.13-4.19,8.68Z"/>
        <path class="cls-1" d="M96.97,277.4c-.65,1.15-1.3,2.12-1.93,2.91-1.25,1.55-2.49,2.32-3.72,2.32-1.07,0-1.9-.51-2.5-1.52-.38-.65-.56-1.43-.56-2.32,0-2.2.69-4.63,2.08-7.28,1.55-2.95,3.41-5.22,5.59-6.81,1.43-1.03,2.8-1.55,4.13-1.55.83,0,1.53.26,2.08.77.48.46.71.97.71,1.55,0,.44-.17,1.04-.51,1.81.3.42.45.78.45,1.1,0,.42-.28,1.1-.83,2.05-.57.97-1.15,2.26-1.72,3.86-.61,1.7-.92,3.07-.92,4.1,0,.83.25,1.52.74,2.05.14.14.54.37,1.22.68.5.24.74.65.74,1.25,0,.38-.14.68-.42.92-.3.26-.64.39-1.04.39-1.07,0-1.99-.48-2.76-1.43-.63-.77-.95-1.74-.95-2.91,0-.4.04-1.05.12-1.96ZM100.68,267.62c-.24-.44-.5-.76-.77-.97-.28-.21-.57-.31-.89-.31-1.51,0-3.14,1.32-4.9,3.95-1.94,2.91-2.91,5.38-2.91,7.4,0,.5.09.87.28,1.13.19.26.47.39.85.39.95,0,2.06-1.01,3.33-3.03.71-1.11,1.59-2.74,2.65-4.9.69-1.41,1.2-2.34,1.52-2.79.16-.24.45-.52.86-.86Z"/>
        <path class="cls-1" d="M121.25,263.16c-1.29,2-2.48,4.24-3.57,6.72-1.57,3.53-2.35,6.16-2.35,7.91,0,.5.1.87.31,1.13.21.26.52.39.94.39.99,0,2.19-.93,3.6-2.79.89-1.15,1.68-2.3,2.38-3.45.38-.65.78-.98,1.22-.98.26,0,.48.09.65.27.16.18.24.36.24.53,0,.73-.96,2.37-2.88,4.9-2.3,3.05-4.4,4.58-6.3,4.58-1.01,0-1.85-.47-2.53-1.4-.42-.59-.62-1.44-.62-2.53,0-2.4.69-5.19,2.08-8.38.34-.79,1.27-2.7,2.79-5.74-.53.14-.94.21-1.22.21-.42,0-.78-.1-1.1-.3-.44-.28-.65-.62-.65-1.04,0-.5.29-.89.86-1.19.16-.08.89-.21,2.2-.39.48-.08,1.17-.27,2.08-.56.69-1.25,1.82-2.94,3.39-5.08.87-1.19,1.48-1.96,1.81-2.32.48-.5.89-.74,1.25-.74.26,0,.51.14.77.42.24.26.36.52.36.77,0,.52-.56,1.54-1.66,3.06-.73.99-1.28,1.79-1.63,2.41,2.2-.59,3.77-.89,4.73-.89,1.09,0,1.63.46,1.63,1.37,0,.46-.19.79-.56,1.01-.2.12-.71.22-1.55.3-.34-.02-1.83.36-4.49,1.13-.73.22-1.46.45-2.17.68Z"/>
        <path class="cls-1" d="M174.24,265.9c-4.5.89-8.26,1.94-11.29,3.15-1.82,2.67-3.82,5.88-6,9.63l-1.58,2.76c-.28.5-.7,1.21-1.28,2.14-.63,1.09-1.3,1.63-1.99,1.63-.38,0-.69-.15-.95-.45-.26-.26-.39-.54-.39-.86,0-.55.74-2.13,2.23-4.73.81-1.41,2.04-3.4,3.69-5.97.63-.99,1.14-1.8,1.52-2.44-1.19.34-2.28.72-3.27,1.16-.48.22-.87.33-1.19.33-.4,0-.7-.18-.92-.53-.16-.22-.24-.48-.24-.77,0-.67.24-1.15.71-1.43.77-.48,2.16-1.02,4.16-1.63,1.49-.48,2.66-.91,3.54-1.31.42-.52,1.51-2.03,3.27-4.55.75-1.09,2.89-3.67,6.42-7.73,2.54-2.97,5.15-5.74,7.85-8.29,1.57-1.51,2.76-2.26,3.6-2.26.51,0,.96.21,1.34.62.32.38.48.79.48,1.25,0,.55-.28,1.53-.83,2.91-.95,2.44-1.86,5.04-2.73,7.82-.75,2.46-1.26,4.34-1.52,5.65.36,0,.59,0,.71-.03.57-.02,1.05-.03,1.43-.03,1.15,0,1.72.44,1.72,1.31,0,.38-.12.75-.37,1.11-.25.37-.53.59-.85.67-.12.04-.45.06-.98.06-1.13,0-1.97.07-2.53.21-.48,1.41-1.23,5-2.26,10.79-.53,3.84-.79,6.2-.77,7.07,0,1.43-.43,2.14-1.28,2.14-.67,0-1.2-.35-1.58-1.04-.28-.48-.42-1.12-.42-1.93,0-2.73.49-6.42,1.46-11.06.5-2.34.86-4.13,1.1-5.38ZM175.08,262.69c.18-.57.63-2.11,1.37-4.61.18-.65.63-1.95,1.37-3.89.73-2,1.32-3.61,1.75-4.81-1.29.85-2.6,1.98-3.92,3.39-4.68,5.03-7.98,9.14-9.9,12.33.73-.18,2.31-.62,4.73-1.34.69-.2,2.23-.55,4.61-1.07Z"/>
        <path class="cls-1" d="M192.2,272.11c.26-.24.51-.48.74-.71,4.14-4.04,6.91-6.06,8.32-6.06.77,0,1.16.43,1.16,1.28,0,.59-.35,1.3-1.04,2.11-3.78,4.42-5.68,8.31-5.68,11.68,0,1.09.3,2.13.89,3.12.28.46.42.81.42,1.07,0,.24-.12.47-.36.68-.26.28-.56.42-.92.42-.81,0-1.5-.52-2.05-1.55-.53-.97-.8-2.15-.8-3.54,0-2.67,1.01-5.64,3.03-8.89-2.7,1.72-5.2,4.78-7.52,9.15-.59,1.05-1.23,1.58-1.9,1.58-.34,0-.61-.12-.83-.36-.28-.28-.42-.63-.42-1.07,0-1.07,1.22-3.87,3.66-8.41,1.31-2.46,2.34-4.24,3.09-5.35.75-1.09,1.4-1.63,1.93-1.63.26,0,.51.12.74.36.28.28.42.59.42.95,0,.44-.29,1.06-.86,1.87-.83,1.21-1.51,2.31-2.02,3.3Z"/>
        <path class="cls-1" d="M251.37,265.9c-4.5.89-8.26,1.94-11.29,3.15-1.82,2.67-3.82,5.88-6,9.63l-1.58,2.76c-.28.5-.7,1.21-1.28,2.14-.63,1.09-1.3,1.63-1.99,1.63-.38,0-.69-.15-.95-.45-.26-.26-.39-.54-.39-.86,0-.55.74-2.13,2.23-4.73.81-1.41,2.04-3.4,3.69-5.97.63-.99,1.14-1.8,1.52-2.44-1.19.34-2.28.72-3.27,1.16-.48.22-.87.33-1.19.33-.4,0-.7-.18-.92-.53-.16-.22-.24-.48-.24-.77,0-.67.24-1.15.71-1.43.77-.48,2.16-1.02,4.16-1.63,1.49-.48,2.66-.91,3.54-1.31.42-.52,1.51-2.03,3.27-4.55.75-1.09,2.89-3.67,6.42-7.73,2.54-2.97,5.15-5.74,7.85-8.29,1.57-1.51,2.76-2.26,3.6-2.26.51,0,.96.21,1.34.62.32.38.48.79.48,1.25,0,.55-.28,1.53-.83,2.91-.95,2.44-1.86,5.04-2.73,7.82-.75,2.46-1.26,4.34-1.52,5.65.36,0,.59,0,.71-.03.57-.02,1.05-.03,1.43-.03,1.15,0,1.72.44,1.72,1.31,0,.38-.12.75-.37,1.11-.25.37-.53.59-.85.67-.12.04-.45.06-.98.06-1.13,0-1.97.07-2.53.21-.48,1.41-1.23,5-2.26,10.79-.53,3.84-.79,6.2-.77,7.07,0,1.43-.43,2.14-1.28,2.14-.67,0-1.2-.35-1.58-1.04-.28-.48-.42-1.12-.42-1.93,0-2.73.49-6.42,1.46-11.06.5-2.34.86-4.13,1.1-5.38ZM252.2,262.69c.18-.57.63-2.11,1.37-4.61.18-.65.63-1.95,1.37-3.89.73-2,1.32-3.61,1.75-4.81-1.29.85-2.6,1.98-3.92,3.39-4.68,5.03-7.98,9.14-9.9,12.33.73-.18,2.31-.62,4.73-1.34.69-.2,2.23-.55,4.61-1.07Z"/>
        <path class="cls-1" d="M275.8,264.95c1.98-4.14,3.85-7.75,5.62-10.82,1.7-2.97,2.86-4.84,3.48-5.62.67-.85,1.31-1.28,1.9-1.28.32,0,.6.13.86.39.24.26.36.53.36.83,0,.46-.34,1.22-1.01,2.29-2.87,4.64-5.51,9.34-7.91,14.12-2.77,5.57-4.16,9.74-4.16,12.51,0,1.13.22,2.02.65,2.67.08.14.44.46,1.07.95.12.1.18.3.18.59,0,.4-.15.76-.46,1.08s-.65.49-1.03.49c-.46,0-.96-.28-1.52-.83-.79-.79-1.27-1.7-1.43-2.73-.06-.44-.13-1.25-.21-2.44-2.08,3.74-4.06,5.62-5.94,5.62-1.09,0-1.96-.61-2.62-1.84-.44-.81-.65-1.73-.65-2.76,0-3.09,1.13-6.2,3.39-9.33,2.24-3.09,4.65-4.64,7.22-4.64.71,0,1.45.25,2.2.74ZM274.79,267.38c-.53-.36-1-.53-1.4-.53-1.66,0-3.24,1.02-4.73,3.06-1.96,2.66-2.94,5.22-2.94,7.7,0,.3.06.57.18.83.24.5.59.74,1.07.74.69,0,1.54-.67,2.53-2.02,1.33-1.78,2.56-3.89,3.69-6.33.4-.83.78-1.66,1.16-2.5l.27-.56.18-.39Z"/>
        <path class="cls-1" d="M297.09,274.19c-1.21,2.08-2.25,3.63-3.12,4.64-2.12,2.5-3.88,3.74-5.29,3.74-.85,0-1.51-.47-1.96-1.4-.32-.61-.48-1.26-.48-1.93,0-1.31.56-3.2,1.69-5.68,1.01-2.16,1.86-3.86,2.56-5.11.51-.89.82-1.48.92-1.75.24-.53.45-.94.62-1.22.26-.42.61-.62,1.07-.62.24,0,.45.1.62.3.2.24.3.52.3.83,0,.89-.8,2.88-2.41,5.97-1.6,3.05-2.41,5.07-2.41,6.06,0,.63.25.95.74.95.85,0,2.06-1.11,3.63-3.33.69-.99,1.42-2.25,2.17-3.77-.02-.5-.03-.87-.03-1.13,0-1.49.28-2.77.83-3.86.71-1.41,1.67-2.11,2.88-2.11.69,0,1.04.42,1.04,1.25,0,1.33-.69,3.28-2.08,5.85.4.08.71.12.95.12.65,0,1.51-.42,2.56-1.25.83-.67,1.38-1.01,1.63-1.01.22,0,.45.13.68.39.18.22.27.44.27.65,0,.71-.5,1.52-1.49,2.41-1.15,1.01-2.46,1.52-3.92,1.52-.57,0-1.24-.17-1.99-.51Z"/>
        <path class="cls-1" d="M311.68,276.6v.53c0,.44.11.81.33,1.13.5.73,1.31,1.1,2.44,1.1,2.48,0,5.34-1.9,8.59-5.71.57-.65,1.06-.98,1.46-.98.22,0,.42.11.59.33.12.16.18.31.18.45,0,.77-.95,2.08-2.85,3.92-1.49,1.45-3.07,2.63-4.76,3.54-1.68.91-3.25,1.37-4.7,1.37s-2.65-.52-3.51-1.55c-.57-.71-.86-1.68-.86-2.91,0-3.35,1.58-6.63,4.73-9.84,2.56-2.62,4.79-3.92,6.69-3.92.51,0,.98.16,1.4.48.51.42.77.96.77,1.63,0,1.05-.49,2.34-1.46,3.86-2,3.17-5.01,5.36-9.04,6.57ZM312.33,274.28c1.39-.48,2.48-1.01,3.27-1.6,1.39-1.07,2.49-2.28,3.3-3.63.3-.48.45-.9.45-1.28,0-.4-.19-.59-.56-.59-.52,0-1.25.39-2.2,1.16-1.7,1.37-3.12,3.35-4.25,5.94Z"/>
        <path class="cls-1" d="M337.95,272.11c.26-.24.51-.48.74-.71,4.14-4.04,6.91-6.06,8.32-6.06.77,0,1.16.43,1.16,1.28,0,.59-.35,1.3-1.04,2.11-3.78,4.42-5.68,8.31-5.68,11.68,0,1.09.3,2.13.89,3.12.28.46.42.81.42,1.07,0,.24-.12.47-.36.68-.26.28-.56.42-.92.42-.81,0-1.5-.52-2.05-1.55-.53-.97-.8-2.15-.8-3.54,0-2.67,1.01-5.64,3.03-8.89-2.7,1.72-5.2,4.78-7.52,9.15-.59,1.05-1.23,1.58-1.9,1.58-.34,0-.61-.12-.83-.36-.28-.28-.42-.63-.42-1.07,0-1.07,1.22-3.87,3.66-8.41,1.31-2.46,2.34-4.24,3.09-5.35.75-1.09,1.4-1.63,1.93-1.63.26,0,.51.12.74.36.28.28.42.59.42.95,0,.44-.29,1.06-.86,1.87-.83,1.21-1.51,2.31-2.02,3.3Z"/>
        <path class="cls-1" d="M365.39,263.16c-1.29,2-2.48,4.24-3.57,6.72-1.57,3.53-2.35,6.16-2.35,7.91,0,.5.1.87.31,1.13.21.26.52.39.94.39.99,0,2.19-.93,3.6-2.79.89-1.15,1.68-2.3,2.38-3.45.38-.65.78-.98,1.22-.98.26,0,.48.09.65.27.16.18.24.36.24.53,0,.73-.96,2.37-2.88,4.9-2.3,3.05-4.4,4.58-6.3,4.58-1.01,0-1.85-.47-2.53-1.4-.42-.59-.62-1.44-.62-2.53,0-2.4.69-5.19,2.08-8.38.34-.79,1.27-2.7,2.79-5.74-.53.14-.94.21-1.22.21-.42,0-.78-.1-1.1-.3-.44-.28-.65-.62-.65-1.04,0-.5.29-.89.86-1.19.16-.08.89-.21,2.2-.39.48-.08,1.17-.27,2.08-.56.69-1.25,1.82-2.94,3.39-5.08.87-1.19,1.48-1.96,1.81-2.32.48-.5.89-.74,1.25-.74.26,0,.51.14.77.42.24.26.36.52.36.77,0,.52-.56,1.54-1.66,3.06-.73.99-1.28,1.79-1.63,2.41,2.2-.59,3.77-.89,4.73-.89,1.09,0,1.63.46,1.63,1.37,0,.46-.19.79-.56,1.01-.2.12-.71.22-1.55.3-.34-.02-1.83.36-4.49,1.13-.73.22-1.46.45-2.17.68Z"/>
        <path class="cls-1" d="M384.05,277.76c-.85,1.19-1.6,2.14-2.26,2.85-1.15,1.27-2.29,1.9-3.42,1.9-.97,0-1.72-.44-2.26-1.31-.38-.61-.56-1.35-.56-2.2,0-2.56,1.09-5.49,3.27-8.8,1.01-1.55,2.01-2.72,3-3.54.77-.65,1.41-.98,1.9-.98.28,0,.53.12.77.36.2.22.3.44.3.65,0,.38-.37.99-1.1,1.84-1.64,1.96-2.89,3.76-3.74,5.41-.99,1.92-1.49,3.43-1.49,4.52,0,.28.06.49.19.64.13.15.31.22.55.22,1.01,0,2.42-1.45,4.22-4.34.93-1.51,1.73-3.17,2.41-4.99.36-.99.82-1.87,1.4-2.65.55-.69,1.1-1.04,1.63-1.04.3,0,.56.13.8.39.26.28.39.58.39.92,0,.71-.68,2.32-2.05,4.81-.93,1.72-1.4,3.16-1.4,4.31,0,1.23.33,2.28.98,3.15.18.24.72.61,1.63,1.13.44.26.65.67.65,1.25,0,.36-.15.66-.46.92-.31.26-.68.39-1.11.39-.99,0-1.89-.4-2.7-1.19-.73-.71-1.2-1.74-1.4-3.09-.04-.18-.09-.69-.15-1.55Z"/>
        <path class="cls-1" d="M403.37,272.53c1.94-2.08,4.18-4.11,6.72-6.09.91-.71,1.88-1.38,2.91-1.99.51-.3.84-.45.98-.45.3,0,.59.22.89.65.18.24.27.46.27.65,0,.36-.38.84-1.13,1.46-2.02,1.6-3.03,2.81-3.03,3.63,0,.46.26.68.77.68.85,0,2.32-.7,4.4-2.11.36-.24.65-.36.89-.36.16,0,.32.08.48.24.18.18.27.37.27.56,0,.59-.83,1.51-2.5,2.73-1.74,1.31-3.4,1.96-4.96,1.96-.63,0-1.22-.17-1.75-.51-.46-.28-.68-.77-.68-1.49,0-.5.21-1.06.62-1.69-1.57,1.11-3.41,3.01-5.53,5.71-1.23,1.66-2.45,3.72-3.66,6.15-.46.91-1.02,1.37-1.69,1.37-.73,0-1.1-.35-1.1-1.04s.57-2.48,1.72-5.41c1.7-4.36,3.49-7.74,5.35-10.13,1.15-1.49,2.11-2.23,2.88-2.23.26,0,.5.08.71.24.26.2.39.45.39.74s-.2.71-.59,1.25c-.08.1-.6.76-1.58,1.99-.89,1.17-1.58,2.33-2.05,3.48Z"/>
        <path class="cls-1" d="M425.28,276.6v.53c0,.44.11.81.33,1.13.5.73,1.31,1.1,2.44,1.1,2.48,0,5.34-1.9,8.59-5.71.57-.65,1.06-.98,1.46-.98.22,0,.42.11.59.33.12.16.18.31.18.45,0,.77-.95,2.08-2.85,3.92-1.49,1.45-3.07,2.63-4.76,3.54-1.68.91-3.25,1.37-4.7,1.37s-2.65-.52-3.51-1.55c-.57-.71-.86-1.68-.86-2.91,0-3.35,1.58-6.63,4.73-9.84,2.56-2.62,4.79-3.92,6.69-3.92.51,0,.98.16,1.4.48.51.42.77.96.77,1.63,0,1.05-.49,2.34-1.46,3.86-2,3.17-5.01,5.36-9.04,6.57ZM425.93,274.28c1.39-.48,2.48-1.01,3.27-1.6,1.39-1.07,2.49-2.28,3.3-3.63.3-.48.45-.9.45-1.28,0-.4-.19-.59-.56-.59-.52,0-1.25.39-2.2,1.16-1.7,1.37-3.12,3.35-4.25,5.94Z"/>
      </g>
      <g>
        <path class="cls-1" d="M76.73,30.89s8.72,2.6,15.15,1.53,13.92-5.2,2.91-12.55C83.77,12.52,17.21-3.24,3.59.59c-13.62,3.83,15.21,14.44,24.33,17.14,6.73,1.99,10.56.61,9.79,8.72-.77,8.11,3.76,157.37,5.2,177.34,1.09,15,16.97,31.15,37.9,26.64s-9.31-2.75-14.19-24.03c-4.86-21.2.59-73.61,1.68-122.87.26-11.63.15-38.56.15-47.28,0-8.15,2.75-6.12,8.26-5.36Z"/>
        <path class="cls-1" d="M139.47,13.18c-15.66,12.28-50.24,47.49-49.55,60.01.7,12.52,48.85,57.2,49.03,63.98.17,6.78-41.6,55.5-46.25,63.28-5.91,9.91-.25,19.69,9.56,16.52,11.82-3.82,57.72-70.02,61.2-77.89,3.07-6.94-46.84-58.44-49.9-65.37-2.2-4.99,35.64-33.93,43.12-48.71,2.36-4.66-4.35-21.91-17.21-11.82Z"/>
        <path class="cls-1" d="M196.44,216.98c-10.9.26-20.55,3.88-22.46-13.11-1.91-16.98,0-191.02,13.17-193.12,13.17-2.1,54.57,1.91,54.57,1.91,0,0,9.92,1.72,9.92,6.11s-9.54,5.34-9.54,5.34c0,0-36.83,1.53-37.02,2.29s.38,30.92-.57,35.88c0,0,16.98,5.92,0,13.55,0,0-7.44,122.51-9.16,126.7-1.72,4.2,38.95-3.12,47.32-2.48,7.44.57,9.03,1.73,8.59,6.87-.57,6.68-39.14,9.67-54.82,10.05Z"/>
        <path class="cls-1" d="M281.25,202.82c1.95,4.1,38.95-3.12,47.32-2.48,7.44.57,9.03,1.73,8.59,6.87-.57,6.68-38.99,8.84-54.67,9.23-9.43.24-20.71,4.69-22.61-12.29-1.91-16.98,0-191.02,13.17-193.12,0,0,8.9-5.73,9.64,11.77.81,19.07-4.9,172.72-1.44,180.01Z"/>
        <g>
          <path class="cls-1" d="M423.77,216.27c8.36-3.61,10.32-39.96,10.75-91.73.27-32.71.5-99.36-14.61-109.1-12.02-7.75-64.1-10.95-66.54,25.96s6.46,137.34-1.97,163.97c-5.9,18.66-29.95,19.24-22.57,23.2,12.84,6.88,33.28.73,40.01-13.46,11.36-23.94,5.39-72.46,10.08-166.81,1.29-26.01,24.32-30.88,25.56-7.3,2.43,46.25-5.87,186.12,19.27,175.27Z"/>
          <polygon class="cls-1" points="409.77 64.5 374.07 63.28 373.66 79.1 408.15 80.32 409.77 64.5"/>
        </g>
      </g>
    </g>
  </g>
</svg>